<?xml version="1.0" encoding="UTF-8" standalone="no"?>
<svg
   width="100"
   height="100"
   viewBox="0 0 26.458333 26.458334"
   version="1.1"
   id="svg4"
   xmlns="http://www.w3.org/2000/svg"
   xmlns:svg="http://www.w3.org/2000/svg">
  <defs
     id="defs8" />
  <path
     style="fill:#000000;stroke-width:2.10544;paint-order:markers fill stroke"
     d="m 12.805305,4.2977327 a -1.4175014,1.4174967 0 0 0 2.003401,2.0033953 l 2.362502,-2.3624945 a -3.7821061,3.7820934 0 1 1 5.348706,5.3486875 l -4.725006,4.724989 a -3.7800039,3.7799912 0 0 1 -5.348704,0 -1.4175014,1.4174967 0 0 0 -2.003402,2.003395 -6.6150068,6.6149845 0 0 0 9.35551,0 l 4.725004,-4.724989 A -6.6153447,6.6153224 0 0 0 15.167807,1.9352382 Z M 3.9411961,22.51729 a -3.7800039,3.7799912 0 0 1 0,-5.348687 l 4.725004,-4.72499 a -3.7800039,3.7799912 0 0 1 5.3487049,0 -1.4175014,1.4174967 0 0 0 2.003403,-2.003394 -6.6150068,6.6149845 0 0 0 -9.3555099,0 l -4.725005,4.724988 a -6.6153442,6.6153222 0 0 0 9.3555099,9.355478 l 2.362502,-2.362494 A -1.4175014,1.4174967 0 0 0 11.652402,20.154795 L 9.2899011,22.51729 a -3.7800039,3.7799912 0 0 1 -5.348705,0 z"
     id="path2" />
</svg>
