<?xml version="1.0" encoding="UTF-8" standalone="no"?>
<svg
   width="100"
   height="100"
   viewBox="0 0 26.458333 26.458334"
   version="1.1"
   id="svg4"
   xmlns="http://www.w3.org/2000/svg"
   xmlns:svg="http://www.w3.org/2000/svg">
  <defs
     id="defs8" />
  <path
     style="fill:#000000;stroke-width:0.0544008;paint-order:markers fill stroke"
     d="M 13.229167,0 C 5.953125,0 0,5.953125 0,13.229166 c 0,7.276042 5.953125,13.229167 13.229167,13.229167 7.276041,0 13.229166,-5.953125 13.229166,-13.229167 C 26.458333,5.953125 20.505208,0 13.229167,0 Z m 0,24.25348 c -6.063377,0 -11.0243145,-4.960937 -11.0243145,-11.024314 0,-6.063376 4.9609375,-11.024314 11.0243145,-11.024314 6.063376,0 11.024314,4.960938 11.024314,11.024314 0,6.063377 -4.960938,11.024314 -11.024314,11.024314 z M 12.126728,4.40973 h 2.204852 v 9.921875 H 7.7169967 v -2.204852 h 4.4097313 z"
     id="path2" />
</svg>
