<?xml version="1.0" encoding="UTF-8" standalone="no"?>
<svg
   width="100"
   height="100"
   viewBox="0 0 26.458333 26.458334"
   version="1.1"
   id="svg4"
   xmlns="http://www.w3.org/2000/svg"
   xmlns:svg="http://www.w3.org/2000/svg">
  <defs
     id="defs8" />
  <path
     style="fill:#000000;stroke-width:0.0544008;paint-order:markers fill stroke"
     d="m 26.458308,10.142362 v 6.173609 l -3.19704,0.771711 -0.220478,0.551207 1.763898,2.756088 -4.409731,4.409735 -2.756085,-1.763899 -0.661459,0.220477 -0.661458,3.197044 H 10.142353 L 9.3706426,23.26129 8.8194359,23.040813 6.0633509,24.804712 1.65362,20.394977 3.4175175,17.638889 3.19704,17.087682 0,16.315971 V 10.142362 L 3.19704,9.370652 3.4175175,8.819444 1.65362,6.063357 6.0633509,1.653622 8.8194359,3.417521 9.4808942,3.197043 10.142353,0 h 6.173602 l 0.77171,3.197043 0.661458,0.220478 2.756085,-1.763899 4.409731,4.409735 -1.874123,2.756087 0.220477,0.661459 3.19704,0.661459 z M 21.938351,6.394112 20.064228,4.519987 17.859375,5.953157 15.10329,4.850716 14.552083,2.204881 H 11.90625 L 11.355043,4.740465 8.5989584,5.842905 6.3941059,4.409735 4.5199825,6.28386 5.9531509,8.488715 4.8507117,11.244803 2.2048784,11.906262 v 2.645836 l 2.5355816,0.551207 1.1024392,2.756088 -1.4331683,2.204854 1.8741233,1.874125 2.2048525,-1.433169 2.7560853,1.10244 0.661458,2.645836 h 2.645833 l 0.551207,-2.535584 2.756085,-1.102441 2.204853,1.43317 1.874123,-1.874125 -1.433168,-2.204855 1.102439,-2.756087 2.535581,-0.551208 V 12.016513 L 21.607622,11.465306 20.505183,8.709219 Z m -8.70921,12.347217 c -3.086814,0 -5.5121443,-2.425358 -5.5121443,-5.512149 0,-3.086792 2.4253563,-5.51215 5.5121443,-5.51215 3.086788,0 5.512144,2.425358 5.512144,5.51215 0,3.086791 -2.425356,5.512149 -5.512144,5.512149 z m 0,-8.819444 c -1.874123,0 -3.3072918,1.433169 -3.3072918,3.307295 0,1.874125 1.4331688,3.307295 3.3072918,3.307295 1.874123,0 3.307292,-1.43317 3.307292,-3.307295 0,-1.874126 -1.433169,-3.307295 -3.307292,-3.307295 z"
     id="path2" />
</svg>
