<?xml version="1.0" encoding="UTF-8" standalone="no"?>
<svg
   width="100"
   height="100"
   viewBox="0 0 26.458333 26.458334"
   version="1.1"
   id="svg4"
   sodipodi:docname="lighting_opt.svg"
   inkscape:version="1.1.1 (1:1.1+202109281949+c3084ef5ed)"
   xmlns:inkscape="http://www.inkscape.org/namespaces/inkscape"
   xmlns:sodipodi="http://sodipodi.sourceforge.net/DTD/sodipodi-0.dtd"
   xmlns="http://www.w3.org/2000/svg"
   xmlns:svg="http://www.w3.org/2000/svg">
  <sodipodi:namedview
     id="namedview5"
     pagecolor="#ffffff"
     bordercolor="#666666"
     borderopacity="1.0"
     inkscape:pageshadow="2"
     inkscape:pageopacity="0.0"
     inkscape:pagecheckerboard="0"
     showgrid="false"
     inkscape:zoom="8.44"
     inkscape:cx="50"
     inkscape:cy="50.059242"
     inkscape:window-width="1920"
     inkscape:window-height="1016"
     inkscape:window-x="0"
     inkscape:window-y="27"
     inkscape:window-maximized="1"
     inkscape:current-layer="svg4" />
  <defs
     id="defs8" />
  <path
     style="fill:#000000;stroke-width:0.0516013;paint-order:markers fill stroke"
     d="M 7.743044,0.00100189 C 7.506225,0.01748189 7.3153786,0.21622384 7.2821488,0.47161291 L 5.2974867,14.802035 c -0.00366,0.02521 -0.00582,0.05427 -0.00582,0.0839 0,0.304339 0.2220764,0.551049 0.4960551,0.5511 H 10.143994 L 8.2778866,25.799488 c -0.00609,0.03239 -0.00958,0.06961 -0.00958,0.107745 0,0.304364 0.2221226,0.5511 0.4961247,0.5511 0.1562905,0 0.2957215,-0.08028 0.3866447,-0.205742 L 21.057885,9.7198322 c 0.06776,-0.093433 0.108782,-0.2135688 0.108782,-0.3443499 0,-0.3043644 -0.222122,-0.5510999 -0.496124,-0.5510999 -7e-5,0 -1.39e-4,0 -2.1e-4,0 h -6.142925 l 3.610189,-8.02045454 c 0.03272,-0.07153 0.05188,-0.15594087 0.05188,-0.24534096 0,-0.30418295 -0.221844,-0.5507899 -0.495613,-0.55110001 h -7.93739 c -0.0021,-2.5e-5 -0.00457,-5.1e-5 -0.00705,-5.1e-5 -0.274002,0 -0.4961242,0.24673495 -0.4961242,0.55109901 0,0.30436394 0.2221222,0.5511 0.4961242,0.5511 0.00248,0 0.00495,-2.6e-5 0.00742,-5.2e-5 h 7.134733 l -3.610189,8.020455 c -0.03272,0.071533 -0.05188,0.15594 -0.05188,0.2453411 0,0.3041832 0.221843,0.5507887 0.495613,0.5510987 h 5.912362 L 9.649875,23.79329 11.235032,14.993598 c 0.0061,-0.03234 0.0095,-0.06951 0.0095,-0.107589 0,-0.304288 -0.222006,-0.550997 -0.495938,-0.5511 H 6.3652424 L 8.2623761,0.64245999 c 0.00438,-0.02746 0.00686,-0.0591 0.00686,-0.09136 C 8.2692341,0.24673595 8.0471115,0 7.7731093,0 7.7625313,0 7.7520193,3.6199994e-4 7.7416213,0.0011 Z"
     id="path2" />
</svg>
