<?xml version="1.0" encoding="UTF-8" standalone="no"?>
<svg
   version="1.1"
   viewBox="-10 0 100 100"
   id="svg6"
   width="100"
   height="100"
   xmlns="http://www.w3.org/2000/svg"
   xmlns:svg="http://www.w3.org/2000/svg">
  <defs
     id="defs10" />
  <g
     transform="matrix(0.09891197,0,0,-0.09891197,-10,94.95549)"
     id="g4">
    <path
       fill="currentColor"
       d="M 1011,9 610,410 q 35,44 54,97.5 19,53.5 19,111.5 0,70 -27,132 -27,62 -73.5,108.5 Q 536,906 474,933 412,960 341,960 271,960 209,933 147,906 100.5,859.5 54,813 27,751 0,689 0,619 0,548 27,486 54,424 100.5,377.5 147,331 209,304 q 62,-27 132,-27 58,0 111.5,19 53.5,19 97.5,54 L 951,-51 Z M 341,363 q -52,0 -99,20 -47,20 -81.5,55 -34.5,35 -54.5,81 -21,47 -21,100 0,52 21,99 20,47 54.5,81.5 34.5,34.5 81.5,54.5 47,21 99,21 53,0 100,-21 46,-20 81,-54.5 35,-34.5 55,-81.5 20,-47 20,-99 0,-53 -20,-100 -20,-46 -55,-81 -35,-35 -81,-55 -47,-20 -100,-20 z"
       id="path2" />
  </g>
</svg>
